<?xml version="1.0" standalone="no"?><!DOCTYPE svg PUBLIC "-//W3C//DTD SVG 1.1//EN" "http://www.w3.org/Graphics/SVG/1.1/DTD/svg11.dtd"><svg t="1539913116583" class="icon" style="" viewBox="0 0 1024 1024" version="1.1" xmlns="http://www.w3.org/2000/svg" p-id="2432" xmlns:xlink="http://www.w3.org/1999/xlink" width="200" height="200"><defs><style type="text/css"></style></defs><path d="M1024.015833 404.763569c0-2.3552-0.259938-4.694646-0.787693-6.986831-14.603815-64.259938-102.667815-362.527508-106.41723-375.1936A31.491938 31.491938 0 0 0 886.60291 0H132.915279a31.507692 31.507692 0 0 0-30.255262 22.701292C66.528571 146.810092 7.223217 353.768369 0.669617 397.430154a31.428923 31.428923 0 0 0-0.645907 6.789908L0.015833 404.763569a191.653415 191.653415 0 0 0 49.569477 128.795569V992.492308a31.507692 31.507692 0 0 0 31.507692 31.507692h861.845661a31.507692 31.507692 0 0 0 31.507693-31.507692V533.559138A191.629785 191.629785 0 0 0 1024.015833 404.763569z m-960.953108 0.094523C65.654233 383.125662 111.876017 217.166769 156.569679 63.015385h706.465477c20.818708 70.797785 84.094031 286.964185 97.925907 345.166769-1.811692 69.624123-58.816985 125.699938-128.6144 125.699938-63.834585 0-128.236308-33.421785-128.653784-108.063507a31.586462 31.586462 0 0 0-31.554954-33.169723 31.507692 31.507692 0 0 0-31.460431 33.248492C640.212756 500.483938 575.826786 533.882092 512.015833 533.882092c-63.834585 0-128.244185-33.429662-128.653785-108.079261l0.039385-0.874339a31.586462 31.586462 0 0 0-31.594339-32.27963 31.507692 31.507692 0 0 0-31.460431 33.248492c-0.456862 74.586585-64.842831 107.984738-128.661661 107.984738-70.703262 0-128.259938-57.517292-128.653785-128.385969l0.031508-0.638031zM112.600694 960.984615V579.710031a190.085908 190.085908 0 0 0 79.084308 17.187446c70.088862 0 127.062646-27.262031 160.169354-72.144739 33.098831 44.882708 90.072615 72.144738 160.161477 72.144739s127.054769-27.254154 160.161477-72.144739c33.098831 44.890585 90.072615 72.144738 160.161476 72.144739a190.148923 190.148923 0 0 0 79.092185-17.187446V960.984615H112.600694z" p-id="2433"></path><path d="M233.18851 323.087754h557.662523a31.507692 31.507692 0 0 0 0-63.015385H233.18851a31.507692 31.507692 0 0 0 0 63.015385z" p-id="2434"></path></svg>